<mxfile host="Electron" agent="Mozilla/5.0 (Windows NT 10.0; Win64; x64) AppleWebKit/537.36 (KHTML, like Gecko) draw.io/24.7.17 Chrome/128.0.6613.36 Electron/32.0.1 Safari/537.36" version="24.7.17">
  <diagram name="Trang-1" id="5rwuvxfSkeTYMZ6jXlzA">
    <mxGraphModel dx="1434" dy="844" grid="1" gridSize="10" guides="1" tooltips="1" connect="1" arrows="1" fold="1" page="1" pageScale="1" pageWidth="850" pageHeight="1100" math="0" shadow="0">
      <root>
        <mxCell id="0" />
        <mxCell id="1" parent="0" />
        <mxCell id="0gl4RLh-h5pGOMcy9oXP-11" style="edgeStyle=orthogonalEdgeStyle;rounded=0;orthogonalLoop=1;jettySize=auto;html=1;exitX=1;exitY=0.5;exitDx=0;exitDy=0;entryX=0;entryY=0.5;entryDx=0;entryDy=0;" edge="1" parent="1" source="0gl4RLh-h5pGOMcy9oXP-1" target="0gl4RLh-h5pGOMcy9oXP-2">
          <mxGeometry relative="1" as="geometry" />
        </mxCell>
        <mxCell id="0gl4RLh-h5pGOMcy9oXP-1" value="Bắt đầu" style="rounded=1;whiteSpace=wrap;html=1;" vertex="1" parent="1">
          <mxGeometry x="365" y="10" width="120" height="60" as="geometry" />
        </mxCell>
        <mxCell id="0gl4RLh-h5pGOMcy9oXP-22" value="" style="edgeStyle=orthogonalEdgeStyle;rounded=0;orthogonalLoop=1;jettySize=auto;html=1;" edge="1" parent="1" source="0gl4RLh-h5pGOMcy9oXP-2" target="0gl4RLh-h5pGOMcy9oXP-21">
          <mxGeometry relative="1" as="geometry" />
        </mxCell>
        <mxCell id="0gl4RLh-h5pGOMcy9oXP-2" value="Vòng lặp i" style="rounded=0;whiteSpace=wrap;html=1;" vertex="1" parent="1">
          <mxGeometry x="520" y="10" width="120" height="60" as="geometry" />
        </mxCell>
        <mxCell id="0gl4RLh-h5pGOMcy9oXP-19" value="" style="edgeStyle=orthogonalEdgeStyle;rounded=0;orthogonalLoop=1;jettySize=auto;html=1;" edge="1" parent="1" source="0gl4RLh-h5pGOMcy9oXP-6" target="0gl4RLh-h5pGOMcy9oXP-18">
          <mxGeometry relative="1" as="geometry" />
        </mxCell>
        <mxCell id="0gl4RLh-h5pGOMcy9oXP-6" value="Vòng lặp j" style="rounded=0;whiteSpace=wrap;html=1;" vertex="1" parent="1">
          <mxGeometry x="520" y="219" width="120" height="60" as="geometry" />
        </mxCell>
        <mxCell id="0gl4RLh-h5pGOMcy9oXP-16" value="" style="edgeStyle=orthogonalEdgeStyle;rounded=0;orthogonalLoop=1;jettySize=auto;html=1;" edge="1" parent="1" source="0gl4RLh-h5pGOMcy9oXP-7" target="0gl4RLh-h5pGOMcy9oXP-9">
          <mxGeometry relative="1" as="geometry" />
        </mxCell>
        <mxCell id="0gl4RLh-h5pGOMcy9oXP-7" value="Cho đỉnhTemp = cacDinh[ j ]" style="rounded=0;whiteSpace=wrap;html=1;" vertex="1" parent="1">
          <mxGeometry x="368" y="334" width="120" height="60" as="geometry" />
        </mxCell>
        <mxCell id="0gl4RLh-h5pGOMcy9oXP-17" value="" style="edgeStyle=orthogonalEdgeStyle;rounded=0;orthogonalLoop=1;jettySize=auto;html=1;" edge="1" parent="1" source="0gl4RLh-h5pGOMcy9oXP-9" target="0gl4RLh-h5pGOMcy9oXP-10">
          <mxGeometry relative="1" as="geometry" />
        </mxCell>
        <mxCell id="0gl4RLh-h5pGOMcy9oXP-9" value="Cho đỉnhInput = value của input đỉnh i" style="rounded=0;whiteSpace=wrap;html=1;" vertex="1" parent="1">
          <mxGeometry x="368" y="424" width="120" height="60" as="geometry" />
        </mxCell>
        <mxCell id="0gl4RLh-h5pGOMcy9oXP-10" value="ThemCanh(dinhTemp, dinhInput)" style="shape=process;whiteSpace=wrap;html=1;backgroundOutline=1;" vertex="1" parent="1">
          <mxGeometry x="338" y="514" width="180" height="90" as="geometry" />
        </mxCell>
        <mxCell id="0gl4RLh-h5pGOMcy9oXP-20" style="edgeStyle=orthogonalEdgeStyle;rounded=0;orthogonalLoop=1;jettySize=auto;html=1;exitX=0;exitY=0.5;exitDx=0;exitDy=0;entryX=1;entryY=0.5;entryDx=0;entryDy=0;" edge="1" parent="1" source="0gl4RLh-h5pGOMcy9oXP-18" target="0gl4RLh-h5pGOMcy9oXP-7">
          <mxGeometry relative="1" as="geometry" />
        </mxCell>
        <mxCell id="0gl4RLh-h5pGOMcy9oXP-18" value="Nếu j &amp;lt; độ dài cacDinh" style="rhombus;whiteSpace=wrap;html=1;" vertex="1" parent="1">
          <mxGeometry x="525" y="309" width="110" height="110" as="geometry" />
        </mxCell>
        <mxCell id="0gl4RLh-h5pGOMcy9oXP-24" style="edgeStyle=orthogonalEdgeStyle;rounded=0;orthogonalLoop=1;jettySize=auto;html=1;exitX=0.5;exitY=1;exitDx=0;exitDy=0;entryX=0.5;entryY=0;entryDx=0;entryDy=0;" edge="1" parent="1" source="0gl4RLh-h5pGOMcy9oXP-21" target="0gl4RLh-h5pGOMcy9oXP-6">
          <mxGeometry relative="1" as="geometry" />
        </mxCell>
        <mxCell id="0gl4RLh-h5pGOMcy9oXP-21" value="Nếu i &amp;lt; inputCount" style="rhombus;whiteSpace=wrap;html=1;" vertex="1" parent="1">
          <mxGeometry x="530" y="95" width="100" height="100" as="geometry" />
        </mxCell>
      </root>
    </mxGraphModel>
  </diagram>
</mxfile>
